<svg version="1.1" viewBox="0 0 96 96" xmlns="http://www.w3.org/2000/svg" xmlns:xlink="http://www.w3.org/1999/xlink" id="Icons_Robot" overflow="hidden"><path d=" M 64.42 72 L 31.42 72 C 27.2779 72 23.92 75.3579 23.92 79.5 C 23.92 83.6421 27.2779 87 31.42 87 L 64.42 87 C 68.5621 87 71.92 83.6421 71.92 79.5 C 71.92 75.3579 68.5621 72 64.42 72 Z M 33.42 82.5 C 31.7631 82.5 30.42 81.1569 30.42 79.5 C 30.42 77.8431 31.7631 76.5 33.42 76.5 C 35.0769 76.5 36.42 77.8431 36.42 79.5 C 36.42 81.1569 35.0769 82.5 33.42 82.5 Z M 47.92 82.5 C 46.2631 82.5 44.92 81.1569 44.92 79.5 C 44.92 77.8431 46.2631 76.5 47.92 76.5 C 49.5769 76.5 50.92 77.8431 50.92 79.5 C 50.92 81.1569 49.5769 82.5 47.92 82.5 Z M 62.42 82.5 C 60.7631 82.5 59.42 81.1569 59.42 79.5 C 59.42 77.8431 60.7631 76.5 62.42 76.5 C 64.0769 76.5 65.42 77.8431 65.42 79.5 C 65.42 81.1569 64.0769 82.5 62.42 82.5 Z" stroke="none" stroke-width="1" stroke-dasharray="" stroke-dashoffset="1" fill="#FFFFFF" fill-opacity="1"/><circle cx="53.33" cy="28" r="1.5" stroke="none" stroke-width="1" stroke-dasharray="" stroke-dashoffset="1" fill="#FFFFFF" fill-opacity="1"/><path d=" M 56.61 18 L 50 18 L 50 13.45 C 51.9132 12.3454 52.5687 9.89907 51.4641 7.9859 C 50.3595 6.07273 47.9132 5.41723 46 6.5218 C 44.0868 7.62637 43.4313 10.0727 44.5359 11.9859 C 44.887 12.594 45.3919 13.0989 46 13.45 L 46 18 L 39.39 18 C 36.9678 18.0055 35.0055 19.9678 35 22.39 L 35 33.61 C 35.0055 36.0322 36.9678 37.9945 39.39 38 L 56.61 38 C 59.0322 37.9945 60.9945 36.0322 61 33.61 L 61 22.39 C 60.9945 19.9678 59.0322 18.0055 56.61 18 Z M 43 31 C 41.3431 31 40 29.6569 40 28 C 40 26.3431 41.3431 25 43 25 C 44.6569 25 46 26.3431 46 28 C 46 29.6569 44.6569 31 43 31 Z M 53 31 C 51.3431 31 50 29.6569 50 28 C 50 26.3431 51.3431 25 53 25 C 54.6569 25 56 26.3431 56 28 C 56 29.6569 54.6569 31 53 31 Z" stroke="none" stroke-width="1" stroke-dasharray="" stroke-dashoffset="1" fill="#FFFFFF" fill-opacity="1"/><circle cx="43.33" cy="28" r="1.5" stroke="none" stroke-width="1" stroke-dasharray="" stroke-dashoffset="1" fill="#FFFFFF" fill-opacity="1"/><path d=" M 74 58.82 L 74 50.49 C 74 48.0102 71.9898 46 69.51 46 L 64 46 L 64 41 L 32 41 L 32 47 L 24.49 47 C 24.2194 47 24 46.7806 24 46.51 L 24 38.22 C 27.4376 37.2048 29.4013 33.5951 28.3861 30.1576 C 28.1139 29.236 27.6405 28.3864 27 27.67 L 24 30.33 C 24.4196 30.7863 24.6579 31.3802 24.67 32 C 24.6625 33.3807 23.5371 34.4939 22.1564 34.4864 C 20.7757 34.4788 19.6626 33.3535 19.6701 31.9728 C 19.6733 31.3764 19.8896 30.8009 20.28 30.35 L 17.28 27.72 C 14.9231 30.4278 15.2076 34.5335 17.9154 36.8904 C 18.528 37.4236 19.235 37.8373 20 38.11 L 20 46.51 C 20 48.9898 22.0102 51 24.49 51 L 32 51 L 32 69 L 64 69 L 64 50 L 69.51 50 C 69.7806 50 70 50.2194 70 50.49 L 70 58.82 C 66.5844 59.9249 64.7113 63.5895 65.8162 67.0051 C 66.0928 67.8599 66.5435 68.6481 67.14 69.32 L 70.14 66.66 C 69.7262 66.2064 69.4978 65.614 69.5 65 C 69.5012 63.6193 70.6214 62.5009 72.0021 62.5021 C 73.3828 62.5033 74.5012 63.6235 74.5 65.0042 C 74.4995 65.6098 74.2792 66.1946 73.88 66.65 L 76.88 69.28 C 79.2461 66.5876 78.9816 62.4869 76.2892 60.1208 C 75.6231 59.5353 74.8439 59.0926 74 58.82 Z M 60 55 L 57.22 55 C 57.1233 55.0173 57.0313 55.0548 56.95 55.11 L 53.89 58.24 L 51.56 52.72 L 47.21 61.72 L 44.16 50 L 41.81 55 L 37 55 L 37 53 L 40.54 53 L 44.7 44.15 L 47.78 55.93 L 51.69 47.93 L 54.57 54.75 L 55.57 53.75 C 56.0091 53.3056 56.5965 53.0386 57.22 53 L 60 53 Z" stroke="none" stroke-width="1" stroke-dasharray="" stroke-dashoffset="1" fill="#FFFFFF" fill-opacity="1"/></svg>